<?xml version="1.0" encoding="UTF-8"?>
<svg id="Layer_2" data-name="Layer 2" xmlns="http://www.w3.org/2000/svg" viewBox="0 0 480.86 417.18">
  <defs>
    <style>
      .cls-1, .cls-2 {
        fill: #4e3d1c;
      }

      .cls-2 {
        stroke: #4e3d1c;
        stroke-miterlimit: 10;
        stroke-width: 3px;
      }
    </style>
  </defs>
  <g id="Layer_1-2" data-name="Layer 1">
    <g>
      <g>
        <path class="cls-2" d="M132.63,395.13c1.71,0,3.2,1.06,3.88,2.62,2.1,4.86,6.58,7.02,13.22,7.02,7.71,0,11-3.04,11-7.93,0-5.43-3.22-7.79-14.64-10.45-18.17-4.27-22.66-10.88-22.66-19.89,0-11.64,8.71-19.54,24.51-19.54,14.26,0,21.62,6.17,24.45,13.67,1.03,2.72-1.04,5.63-3.95,5.63h-6.13c-1.75,0-3.26-1.11-3.92-2.74-1.27-3.13-4.13-5.83-10.83-5.83-5.86,0-9.4,2.42-9.4,7.16s2.83,6.53,13.62,9.03c19.42,4.58,23.68,11.8,23.68,21.21,0,12.19-9.23,20.56-26.88,20.56-14.18,0-22.74-5.84-26.1-14.88-1.02-2.73,1.03-5.64,3.94-5.64h6.19Z"/>
        <path class="cls-2" d="M195.96,359.77h-11.9c-2.32,0-4.19-1.88-4.19-4.19v-3.45c0-2.32,1.88-4.19,4.19-4.19h46.57c2.32,0,4.19,1.88,4.19,4.19v3.45c0,2.32-1.88,4.19-4.19,4.19h-11.83c-2.32,0-4.19,1.88-4.19,4.19v46.56c0,2.32-1.88,4.19-4.19,4.19h-6.07c-2.32,0-4.19-1.88-4.19-4.19v-46.56c0-2.32-1.88-4.19-4.19-4.19Z"/>
        <path class="cls-2" d="M255.16,347.93c2.32,0,4.19,1.88,4.19,4.19v35.59c0,12.81,6.59,16.61,13.79,16.61,8.26,0,13.45-4.49,13.45-16.61v-35.59c0-2.32,1.88-4.19,4.19-4.19h6.07c2.32,0,4.19,1.88,4.19,4.19v34.88c0,22.83-13.37,28.65-28.09,28.65s-28.06-6.07-28.06-28.37v-35.15c0-2.32,1.88-4.19,4.19-4.19h6.08Z"/>
        <path class="cls-2" d="M316.29,352.13c0-2.32,1.88-4.19,4.19-4.19h22.28c19.45,0,32.16,12.81,32.16,32.55s-12.33,34.22-32.77,34.22h-21.68c-2.32,0-4.19-1.88-4.19-4.19v-58.39ZM330.73,398.85c0,2.32,1.88,4.19,4.19,4.19h6.63c12.8,0,18.46-9.52,18.46-22.53,0-10.91-5.3-20.92-18.38-20.92h-6.72c-2.32,0-4.19,1.88-4.19,4.19v35.06Z"/>
        <path class="cls-2" d="M402.01,352.13v58.39c0,2.32-1.88,4.19-4.19,4.19h-6.05c-2.32,0-4.19-1.88-4.19-4.19v-58.39c0-2.32,1.88-4.19,4.19-4.19h6.05c2.32,0,4.19,1.88,4.19,4.19Z"/>
        <path class="cls-2" d="M479.36,381.09c0,18.58-11.16,34.58-32.85,34.58s-31.92-15.23-31.92-34.36,12.11-34.36,32.86-34.36c19.53,0,31.91,13.69,31.91,34.13ZM429.5,381.03c0,13.04,5.72,22.9,17.56,22.9,12.84,0,17.39-10.75,17.39-22.65,0-12.63-5.17-22.56-17.62-22.56s-17.33,9.32-17.33,22.32Z"/>
      </g>
      <g>
        <path class="cls-1" d="M28.7,133.79l-6.02,17.82c-.79,2.35-3,3.93-5.48,3.93H5.79c-3.96,0-6.75-3.89-5.47-7.64L34.14,48.27c.8-2.35,3-3.92,5.47-3.92h21.97c2.45,0,4.63,1.54,5.45,3.85l35.3,99.63c1.33,3.76-1.46,7.71-5.45,7.71h-13.02c-2.45,0-4.63-1.54-5.45-3.84l-6.4-18c-.82-2.3-3-3.84-5.45-3.84h-32.39c-2.48,0-4.68,1.58-5.48,3.93ZM57.43,110.15c3.95,0,6.74-3.88,5.48-7.63-3.52-10.47-7.14-21.69-9.69-29.72-1.03-3.24-5.64-3.19-6.59.07-2.44,8.37-5.63,18.53-9.17,29.74-1.18,3.73,1.6,7.53,5.51,7.53h14.46Z"/>
        <path class="cls-1" d="M114.97,149.77V50.13c0-3.19,2.59-5.78,5.78-5.78h20.62c2.1,0,4.02,1.12,5.04,2.95,14.18,25.41,38.11,67.51,43.02,79.16h.3c-1.25-11.6-1.23-30.91-1.23-49.16v-27.17c0-3.19,2.59-5.78,5.78-5.78h10.23c3.19,0,5.78,2.59,5.78,5.78v99.63c0,3.19-2.59,5.78-5.78,5.78h-19.06c-2.11,0-4.05-1.14-5.06-2.99-12.73-23.15-38.99-71.03-44.26-83.32h-.3c.81,9.73,1.07,32.57,1.07,52.48v28.04c0,3.19-2.59,5.78-5.78,5.78h-10.37c-3.19,0-5.78-2.59-5.78-5.78Z"/>
        <path class="cls-1" d="M256.18,64.06h-22.22c-3.19,0-5.78-2.59-5.78-5.78v-8.14c0-3.19,2.59-5.78,5.78-5.78h79.95c3.19,0,5.78,2.59,5.78,5.78v8.14c0,3.19-2.59,5.78-5.78,5.78h-22.1c-3.19,0-5.78,2.59-5.78,5.78v79.93c0,3.19-2.59,5.78-5.78,5.78h-12.5c-3.19,0-5.78-2.59-5.78-5.78v-79.93c0-3.19-2.59-5.78-5.78-5.78Z"/>
        <path class="cls-1" d="M23.12,164.23c3.19,0,5.78,2.59,5.78,5.78v60.47c0,21.34,10.97,27.66,22.96,27.66,13.76,0,22.4-7.48,22.4-27.66v-60.47c0-3.19,2.59-5.78,5.78-5.78h12.5c3.19,0,5.78,2.59,5.78,5.78v59.28c0,38.02-22.26,47.71-46.78,47.71s-46.72-10.11-46.72-47.25v-59.74c0-3.19,2.59-5.78,5.78-5.78h12.52Z"/>
        <path class="cls-1" d="M115.2,269.2v-99.63c0-3.19,2.59-5.78,5.78-5.78h20.62c2.1,0,4.02,1.12,5.04,2.95,14.18,25.41,38.11,67.51,43.02,79.16h.3c-1.25-11.6-1.23-30.91-1.23-49.16v-27.17c0-3.19,2.59-5.78,5.78-5.78h10.23c3.19,0,5.78,2.59,5.78,5.78v99.63c0,3.19-2.59,5.78-5.78,5.78h-19.06c-2.11,0-4.05-1.14-5.06-2.99-12.73-23.15-38.99-71.03-44.26-83.32h-.3c.81,9.73,1.07,32.57,1.07,52.48v28.04c0,3.19-2.59,5.78-5.78,5.78h-10.37c-3.19,0-5.78-2.59-5.78-5.78Z"/>
        <path class="cls-1" d="M248.36,169.57v99.63c0,3.19-2.59,5.78-5.78,5.78h-12.48c-3.19,0-5.78-2.59-5.78-5.78v-99.63c0-3.19,2.59-5.78,5.78-5.78h12.48c3.19,0,5.78,2.59,5.78,5.78Z"/>
        <path class="cls-1" d="M370,220.24c0,30.95-18.58,57.59-54.7,57.59s-53.16-25.36-53.16-57.21,20.17-57.21,54.72-57.21c32.53,0,53.14,22.79,53.14,56.83ZM286.97,220.14c0,21.71,9.53,38.13,29.24,38.13,21.38,0,28.96-17.91,28.96-37.72,0-21.04-8.62-37.57-29.34-37.57s-28.85,15.51-28.85,37.16Z"/>
        <path class="cls-1" d="M383.78,269.2v-99.63c0-3.19,2.59-5.78,5.78-5.78h20.62c2.1,0,4.02,1.12,5.04,2.95,14.18,25.41,38.11,67.51,43.02,79.16h.3c-1.25-11.6-1.23-30.91-1.23-49.16v-27.17c0-3.19,2.59-5.78,5.78-5.78h10.23c3.19,0,5.78,2.59,5.78,5.78v99.63c0,3.19-2.59,5.78-5.78,5.78h-19.06c-2.11,0-4.05-1.14-5.06-2.99-12.73-23.15-38.99-71.03-44.26-83.32h-.3c.81,9.73,1.07,32.57,1.07,52.48v28.04c0,3.19-2.59,5.78-5.78,5.78h-10.37c-3.19,0-5.78-2.59-5.78-5.78Z"/>
        <rect class="cls-1" x="0" y="0" width="370" height="20.8" rx="4.07" ry="4.07"/>
        <rect class="cls-1" x="0" y="298.95" width="479.11" height="20.8" rx="4.07" ry="4.07"/>
      </g>
    </g>
  </g>
</svg>